<?xml version="1.0" encoding="UTF-8" standalone="no"?>
<!-- Generator: Adobe Illustrator 24.1.2, SVG Export Plug-In . SVG Version: 6.00 Build 0)  -->

<svg
   xmlns:dc="http://purl.org/dc/elements/1.1/"
   xmlns:cc="http://creativecommons.org/ns#"
   xmlns:rdf="http://www.w3.org/1999/02/22-rdf-syntax-ns#"
   xmlns:svg="http://www.w3.org/2000/svg"
   xmlns="http://www.w3.org/2000/svg"
   xmlns:sodipodi="http://sodipodi.sourceforge.net/DTD/sodipodi-0.dtd"
   xmlns:inkscape="http://www.inkscape.org/namespaces/inkscape"
   version="1.1"
   x="0px"
   y="0px"
   viewBox="0 0 198.2 198.10001"
   xml:space="preserve"
   id="svg43"
   sodipodi:docname="icon.svg"
   width="198.2"
   height="198.10001"
   inkscape:version="0.92.3 (2405546, 2018-03-11)"><metadata
   id="metadata49"><rdf:RDF><cc:Work
       rdf:about=""><dc:format>image/svg+xml</dc:format><dc:type
         rdf:resource="http://purl.org/dc/dcmitype/StillImage" /><dc:title></dc:title></cc:Work></rdf:RDF></metadata><defs
   id="defs47" /><sodipodi:namedview
   pagecolor="#ffffff"
   bordercolor="#666666"
   borderopacity="1"
   objecttolerance="10"
   gridtolerance="10"
   guidetolerance="10"
   inkscape:pageopacity="0"
   inkscape:pageshadow="2"
   inkscape:window-width="1299"
   inkscape:window-height="713"
   id="namedview45"
   showgrid="false"
   inkscape:zoom="1.4288362"
   inkscape:cx="23.559157"
   inkscape:cy="153"
   inkscape:window-x="67"
   inkscape:window-y="27"
   inkscape:window-maximized="1"
   inkscape:current-layer="svg43" />
<style
   type="text/css"
   id="style2">
	.st0{fill:#00ACC1;}
</style>
<g
   id="G"
   transform="translate(0,-107.9)">
	<g
   id="g8">
		<path
   class="st0"
   d="M 183.8,306 H 14.3 C 6.4,306 0,299.6 0,291.7 V 122.2 c 0,-7.9 6.4,-14.3 14.3,-14.3 h 169.6 c 7.9,0 14.3,6.4 14.3,14.3 v 169.6 c -0.1,7.8 -6.5,14.2 -14.4,14.2 z"
   id="path4"
   inkscape:connector-curvature="0"
   style="fill:#00acc1" />
		<path
   d="m 138.9,278.4 c -9.6,1.9 -22.1,3.3 -41.9,3.3 -20.8,0 -51.6,-13.7 -51.6,-59.1 v -27.7 c 0,-45.6 29.2,-59.3 52.1,-59.3 18.5,0 35,2.3 41.4,3.5 2.5,0.6 3.7,1.5 3.7,4 V 156 c 0,2.7 -0.8,4 -3.8,4 -0.2,0 -0.4,0 -0.6,0 -8.8,-0.8 -22.1,-1.5 -40.6,-1.5 -12.9,0 -25.2,9 -25.2,36.4 v 27.7 c 0,27.3 13.3,36.2 24.6,36.2 7.1,0 13.1,-0.2 19,-0.6 v -49.1 c 0,-2.1 1.5,-3.8 3.7,-3.8 h 19 c 2.1,0 3.8,1.7 3.8,3.8 v 64.6 c 0,2.5 -1.1,4.1 -3.6,4.7 z"
   id="path6"
   inkscape:connector-curvature="0" />
	</g>
</g>


</svg>